<svg width="50" height="50" viewBox="0 0 50 50" fill="none" xmlns="http://www.w3.org/2000/svg">
<g clip-path="url(#clip0_10_134)">
<path d="M27.0833 29.1666V33.3333H22.9167V29.1666H-7.62939e-06V50H50V29.1666H27.0833Z" fill="#9BC9A4"/>
<path d="M50 25V14.5833C50 12.9257 49.3415 11.336 48.1694 10.1639C46.9973 8.99181 45.4076 8.33333 43.75 8.33333H37.5V4.16667C37.5 3.0616 37.061 2.00179 36.2796 1.22039C35.4982 0.438987 34.4384 0 33.3333 0L16.6667 0C15.5616 0 14.5018 0.438987 13.7204 1.22039C12.939 2.00179 12.5 3.0616 12.5 4.16667V8.33333H6.25C4.5924 8.33333 3.00268 8.99181 1.83058 10.1639C0.65848 11.336 0 12.9257 0 14.5833L0 25H50ZM16.6667 4.16667H33.3333V8.33333H16.6667V4.16667Z" fill="#9BC9A4"/>
</g>
<defs>
<clipPath id="clip0_10_134">
<rect width="50" height="50" fill="white"/>
</clipPath>
</defs>
</svg>
