<svg width="50" height="50" viewBox="0 0 50 50" fill="none" xmlns="http://www.w3.org/2000/svg">
<mask id="mask0_111_53" style="mask-type:alpha" maskUnits="userSpaceOnUse" x="0" y="0" width="50" height="50">
<path d="M27.0833 29.1666V33.3333H22.9167V29.1666H0V50H50V29.1666H27.0833Z" fill="#9BC9A4"/>
<path d="M50 25V14.5833C50 12.9257 49.3415 11.336 48.1694 10.1639C46.9973 8.99181 45.4076 8.33333 43.75 8.33333H37.5V4.16667C37.5 3.0616 37.061 2.00179 36.2796 1.22039C35.4982 0.438987 34.4384 0 33.3333 0L16.6667 0C15.5616 0 14.5018 0.438987 13.7204 1.22039C12.939 2.00179 12.5 3.0616 12.5 4.16667V8.33333H6.25C4.5924 8.33333 3.00268 8.99181 1.83058 10.1639C0.65848 11.336 0 12.9257 0 14.5833L0 25H50ZM16.6667 4.16667H33.3333V8.33333H16.6667V4.16667Z" fill="#9BC9A4"/>
</mask>
<g mask="url(#mask0_111_53)">
<path d="M0 18C0 6.95431 8.95431 -2 20 -2H30C41.0457 -2 50 6.9543 50 18V52C50 63.0457 41.0457 72 30 72H20C8.9543 72 0 63.0457 0 52V18Z" fill="url(#paint0_linear_111_53)"/>
</g>
<defs>
<linearGradient id="paint0_linear_111_53" x1="0" y1="-2" x2="50" y2="-2" gradientUnits="userSpaceOnUse">
<stop stop-color="#9B91D9"/>
<stop offset="0.18" stop-color="#91A3D9"/>
<stop offset="0.35" stop-color="#9DD298"/>
<stop offset="0.375" stop-color="#9FD98F"/>
<stop offset="0.57" stop-color="#D6D991"/>
<stop offset="0.74" stop-color="#FBD2AD"/>
<stop offset="0.875" stop-color="#E5AFAF"/>
<stop offset="1" stop-color="#D18FB2"/>
</linearGradient>
</defs>
</svg>
