<svg width="70" height="70" viewBox="0 0 70 70" fill="none" xmlns="http://www.w3.org/2000/svg">
<g clip-path="url(#clip0_12_192)">
<path d="M67.375 2.62499C65.6726 1.00339 63.4116 0.098877 61.0604 0.098877C58.7093 0.098877 56.4483 1.00339 54.7458 2.62499L22.0588 35.2917C21.0418 35.0959 20.0085 34.9982 18.9729 35C16.8677 34.9939 14.7822 35.4056 12.8371 36.2112C10.8921 37.0167 9.12618 38.2001 7.64167 39.6929C2.04167 45.3046 0.542507 63.0816 0.291674 66.5875L0.0700073 69.93L3.40959 69.6966C6.90959 69.4575 24.7013 67.9671 30.3071 62.3583C32.1614 60.4986 33.5303 58.2117 34.2932 55.6987C35.0561 53.1857 35.1896 50.5238 34.6821 47.9471L67.375 15.2542C69.0453 13.5771 69.9831 11.3065 69.9831 8.93957C69.9831 6.57261 69.0453 4.30207 67.375 2.62499ZM26.1829 58.2341C23.4704 60.9437 13.7375 62.7841 6.42542 63.5716C7.25084 55.9883 9.17584 46.41 11.7658 43.8171C13.709 42.0669 16.2498 41.1293 18.8641 41.1975C21.4784 41.2658 23.9668 42.3348 25.816 44.184C27.6652 46.0332 28.7342 48.5216 28.8025 51.1359C28.8707 53.7502 27.9331 56.2909 26.1829 58.2341ZM63.2567 11.13L32.2788 42.1108C31.1278 40.3681 29.6404 38.8727 27.9038 37.7125L58.87 6.74332C59.4593 6.18063 60.2427 5.86665 61.0575 5.86665C61.8723 5.86665 62.6557 6.18063 63.245 6.74332C63.5343 7.03029 63.7642 7.37154 63.9214 7.74749C64.0786 8.12345 64.1601 8.52673 64.1611 8.93423C64.1622 9.34173 64.0829 9.74544 63.9277 10.1222C63.7725 10.499 63.5445 10.8415 63.2567 11.13Z" fill="black"/>
</g>
<defs>
<clipPath id="clip0_12_192">
<rect width="70" height="70" fill="white"/>
</clipPath>
</defs>
</svg>
