<svg width="70" height="70" viewBox="0 0 70 70" fill="none" xmlns="http://www.w3.org/2000/svg">
<mask id="mask0_111_70" style="mask-type:alpha" maskUnits="userSpaceOnUse" x="0" y="0" width="70" height="70">
<g clip-path="url(#clip0_111_70)">
<path d="M0 18.9583C0 14.9304 3.26375 11.6667 7.29167 11.6667C11.3196 11.6667 14.5833 14.9304 14.5833 18.9583C14.5833 22.9862 11.3196 26.25 7.29167 26.25C3.26375 26.25 0 22.9862 0 18.9583ZM17.5 49.5833H14.5833V39.375C14.5833 35.3471 11.3196 32.0833 7.29167 32.0833C3.26375 32.0833 0 35.3471 0 39.375V51.0417C0 55.0696 3.26375 58.3333 7.29167 58.3333H17.5V65.625C17.5 68.0429 19.4571 70 21.875 70C24.2929 70 26.25 68.0429 26.25 65.625V58.3333C26.25 53.5092 22.3242 49.5833 17.5 49.5833ZM62.7083 26.25C66.7363 26.25 70 22.9862 70 18.9583C70 14.9304 66.7363 11.6667 62.7083 11.6667C58.6804 11.6667 55.4167 14.9304 55.4167 18.9583C55.4167 22.9862 58.6804 26.25 62.7083 26.25ZM62.7083 32.0833C58.6804 32.0833 55.4167 35.3471 55.4167 39.375V49.5833H52.5C47.6758 49.5833 43.75 53.5092 43.75 58.3333V65.625C43.75 68.0429 45.7071 70 48.125 70C50.5429 70 52.5 68.0429 52.5 65.625V58.3333H62.7083C66.7363 58.3333 70 55.0696 70 51.0417V39.375C70 35.3471 66.7363 32.0833 62.7083 32.0833ZM24.7917 43.75H45.2083C47.6263 43.75 49.5833 41.7929 49.5833 39.375C49.5833 36.9571 47.6263 35 45.2083 35H24.7917C22.3738 35 20.4167 36.9571 20.4167 39.375C20.4167 41.7929 22.3738 43.75 24.7917 43.75ZM65.625 61.25H62.7083C60.2933 61.25 58.3333 63.21 58.3333 65.625C58.3333 68.04 60.2933 70 62.7083 70H65.625C68.04 70 70 68.04 70 65.625C70 63.21 68.04 61.25 65.625 61.25ZM7.29167 61.25H4.375C1.96 61.25 0 63.21 0 65.625C0 68.04 1.96 70 4.375 70H7.29167C9.70667 70 11.6667 68.04 11.6667 65.625C11.6667 63.21 9.70667 61.25 7.29167 61.25ZM20.4167 16.0417V7.29167C20.4167 3.2725 23.6892 0 27.7083 0H42.2917C46.3108 0 49.5833 3.2725 49.5833 7.29167V16.0417C49.5833 20.0288 46.3663 23.2779 42.3908 23.3333L38.7421 26.3083C37.7271 27.2504 36.3825 27.7842 34.9883 27.7842H34.9825C33.5854 27.7842 32.2408 27.2446 31.2288 26.2996L27.6033 23.3333C23.6308 23.2779 20.4167 20.0288 20.4167 16.0417ZM29.1667 14.5833C30.1758 14.5833 31.1558 14.9333 31.9375 15.5721L34.9942 18.0717L38.0683 15.5662C38.85 14.9304 39.8271 14.5833 40.8333 14.5833V8.75H29.1667V14.5833Z" fill="black"/>
</g>
</mask>
<g mask="url(#mask0_111_70)">
<rect y="-8.75" width="70" height="87.5" fill="url(#paint0_linear_111_70)"/>
</g>
<defs>
<linearGradient id="paint0_linear_111_70" x1="0" y1="-8.75" x2="70" y2="-8.75" gradientUnits="userSpaceOnUse">
<stop stop-color="#9B91D9"/>
<stop offset="0.18" stop-color="#91A3D9"/>
<stop offset="0.375" stop-color="#9FD98F"/>
<stop offset="0.58" stop-color="#D6D991"/>
<stop offset="0.78" stop-color="#FFD9AC"/>
<stop offset="1" stop-color="#D18FB2"/>
</linearGradient>
<clipPath id="clip0_111_70">
<rect width="70" height="70" fill="white"/>
</clipPath>
</defs>
</svg>
