<svg width="70" height="70" viewBox="0 0 70 70" fill="none" xmlns="http://www.w3.org/2000/svg">
<g clip-path="url(#clip0_12_200)">
<path d="M62.125 40.4834L60.8125 39.7251C61.1042 38.1501 61.25 36.5459 61.25 34.9709C61.25 33.3959 61.1042 31.8209 60.8125 30.2168L62.125 29.4585C66.2958 27.0668 67.7542 21.7001 65.3625 17.5001C64.1958 15.4876 62.3 14.0293 60.0542 13.4168C57.8083 12.8043 55.4458 13.1251 53.4042 14.2918L52.0917 15.0501C49.6417 12.9501 46.8125 11.3168 43.75 10.2376V8.72095C43.75 3.90845 39.8125 -0.0290527 35 -0.0290527C30.1875 -0.0290527 26.25 3.90845 26.25 8.72095V10.2376C23.1875 11.3168 20.3583 12.9501 17.9083 15.0501L16.5958 14.2918C14.5833 13.1251 12.2208 12.8334 9.94584 13.4168C7.70001 14.0293 5.80417 15.4876 4.63751 17.5001C2.24584 21.6709 3.67501 27.0376 7.84584 29.4585L9.15834 30.2168C8.86667 31.7918 8.72084 33.3959 8.72084 34.9709C8.72084 36.5459 8.86667 38.1209 9.15834 39.7251L7.84584 40.4834C3.67501 42.8751 2.21667 48.2418 4.60834 52.4418C5.77501 54.4543 7.67084 55.9126 9.91667 56.5251C12.1625 57.1376 14.525 56.8168 16.5667 55.6501L17.8792 54.8918C20.3292 56.9918 23.1583 58.6251 26.2208 59.7043V61.2209C26.2208 66.0334 30.1583 69.9709 34.9708 69.9709C39.7833 69.9709 43.7208 66.0334 43.7208 61.2209V59.7043C46.7833 58.6251 49.6125 56.9918 52.0625 54.8918L53.375 55.6501C55.3875 56.8168 57.75 57.1376 60.025 56.5251C62.2708 55.9126 64.1667 54.4543 65.3333 52.4418C67.725 48.2709 66.2958 42.9043 62.125 40.4834ZM54.6583 29.5751C55.1542 31.3834 55.4167 33.2209 55.4167 35.0001C55.4167 36.7793 55.1542 38.5876 54.6583 40.4251C54.3083 41.7084 54.8625 43.0501 56.0292 43.7209L59.2083 45.5584C60.6083 46.3751 61.075 48.1543 60.2875 49.5543C59.9083 50.2251 59.2667 50.7209 58.5083 50.9251C57.75 51.1293 56.9625 51.0418 56.2917 50.6334L53.1125 48.7959C51.9458 48.1251 50.5167 48.3293 49.5833 49.2918C46.9875 51.9459 43.7208 53.8418 40.1042 54.7751C38.8208 55.096 37.9167 56.2626 37.9167 57.6043V61.2793C37.9167 62.8834 36.6042 64.196 35 64.196C33.3958 64.196 32.0833 62.8834 32.0833 61.2793V57.6043C32.0833 56.2626 31.1792 55.1251 29.8958 54.7751C26.2792 53.8418 23.0125 51.9459 20.4167 49.2918C19.8625 48.7084 19.1042 48.4168 18.3167 48.4168C17.8208 48.4168 17.325 48.5334 16.8583 48.7959L13.6792 50.6334C13.0083 51.0126 12.2208 51.1293 11.4625 50.9251C10.7042 50.7209 10.0917 50.2251 9.68334 49.5543C8.89584 48.1543 9.36251 46.3751 10.7625 45.5584L13.9417 43.7209C15.1083 43.0501 15.6625 41.7084 15.3125 40.4251C14.8167 38.6168 14.5542 36.7793 14.5542 35.0001C14.5542 33.2209 14.8167 31.4126 15.3125 29.5751C15.6625 28.2918 15.1083 26.9501 13.9417 26.2793L10.7625 24.4418C9.36251 23.6251 8.89584 21.8459 9.68334 20.4459C10.0625 19.7751 10.7042 19.2793 11.4625 19.0751C12.2208 18.8709 13.0083 18.9876 13.6792 19.3668L16.8583 21.2043C18.025 21.8751 19.4542 21.6709 20.3875 20.7084C22.9833 18.0543 26.25 16.1584 29.8667 15.2251C31.15 14.9043 32.0542 13.7376 32.0542 12.3959V8.72095C32.0542 7.11678 33.3667 5.80428 34.9708 5.80428C36.575 5.80428 37.8875 7.11678 37.8875 8.72095V12.3959C37.8875 13.7376 38.7917 14.8751 40.075 15.2251C43.6917 16.1584 46.9583 18.0543 49.5542 20.7084C50.4875 21.6709 51.9458 21.8751 53.0833 21.2043L56.2625 19.3668C56.9333 18.9876 57.7208 18.8709 58.4792 19.0751C59.2375 19.2793 59.85 19.7751 60.2583 20.4459C61.0458 21.8459 60.5792 23.6251 59.1792 24.4418L56 26.2793C54.8333 26.9501 54.2792 28.2918 54.6292 29.5751H54.6583ZM40.1917 23.9168L35.525 47.2501C35.2625 48.6501 34.0375 49.5835 32.6667 49.5835C32.4917 49.5835 32.2875 49.5834 32.0833 49.5251C30.5083 49.2043 29.4875 47.6876 29.8083 46.0835L34.475 22.7501C34.7958 21.1751 36.3125 20.1543 37.9167 20.4751C39.4917 20.7959 40.5125 22.3126 40.1917 23.9168ZM26.8625 31.646L23.3333 35.1751L26.8625 38.646C28 39.7834 28 41.6209 26.8625 42.7584C26.2792 43.3418 25.55 43.6043 24.7917 43.6043C24.0333 43.6043 23.3042 43.3126 22.7208 42.7584L19.1917 39.2293C16.9167 36.9543 16.9167 33.2793 19.1917 31.0334L22.7208 27.5043C23.8583 26.3668 25.6958 26.3668 26.8333 27.5043C27.9708 28.6418 27.9708 30.4793 26.8333 31.6168L26.8625 31.646ZM50.8083 31.0626C53.0833 33.3376 53.0833 37.0126 50.8083 39.2584L47.2792 42.7876C46.6958 43.3709 45.9667 43.6334 45.2083 43.6334C44.45 43.6334 43.7208 43.3418 43.1375 42.7876C42 41.6501 42 39.8126 43.1375 38.6751L46.6667 35.146L43.1375 31.646C42 30.5084 42 28.6709 43.1375 27.5334C44.275 26.3959 46.1125 26.3959 47.25 27.5334L50.7792 31.0626H50.8083Z" fill="black"/>
</g>
<defs>
<clipPath id="clip0_12_200">
<rect width="70" height="70" fill="white"/>
</clipPath>
</defs>
</svg>
