<svg width="50" height="50" viewBox="0 0 50 50" fill="none" xmlns="http://www.w3.org/2000/svg">
<mask id="mask0_178_3" style="mask-type:alpha" maskUnits="userSpaceOnUse" x="0" y="0" width="50" height="50">
<path d="M25.1167 21.9278L41.8646 37.9245L30.0021 48.0945C27.0396 50.6352 22.9646 50.6352 20.0021 48.0945L7.225 37.1411C6.14375 36.2148 4.82708 35.7124 3.475 35.7124H2.08542C0.933333 35.7124 0 34.6456 0 33.3312V6.98827C0 5.77863 0.789583 4.7714 1.84167 4.63567C4.66875 4.27611 7.21458 2.97837 9.81875 1.24488C13.5646 -0.957706 18.4792 -0.171919 21.5188 3.08314L22.8042 4.49518L14.4562 13.808C12.2208 16.3606 11.8646 20.3967 13.6271 23.185C14.7104 24.9066 16.6708 26.1829 18.7187 26.1829C20.3708 26.1829 21.9562 25.44 23.1021 24.128L25.1167 21.9254V21.9278ZM41.5708 1.24488C38.05 -0.767212 33.6583 -0.243355 30.5125 2.54976L17.3813 17.1987C16.6083 18.0845 16.4333 19.5013 17.0042 20.4062C17.3792 21.0015 17.9229 21.3587 18.5437 21.4182C19.1583 21.4777 19.7542 21.2229 20.1854 20.7276L27.7229 12.5626C29.7 10.4172 32.5646 13.8413 30.6042 16.0034L28.1437 18.6155L46.0458 35.7147H47.9146C49.0646 35.7147 49.9979 34.648 49.9979 33.3336V6.90731C49.9979 5.74053 49.2521 4.77616 48.2458 4.569C44.7167 3.84036 41.5687 1.24726 41.5687 1.24726L41.5708 1.24488Z" fill="#9995D9" fill-opacity="0.76"/>
</mask>
<g mask="url(#mask0_178_3)">
<rect width="50" height="50" fill="url(#paint0_linear_178_3)"/>
</g>
<defs>
<linearGradient id="paint0_linear_178_3" x1="0" y1="0" x2="50" y2="3.73091e-09" gradientUnits="userSpaceOnUse">
<stop stop-color="#9B91D9"/>
<stop offset="0.18" stop-color="#91A3D9"/>
<stop offset="0.35" stop-color="#9DD298"/>
<stop offset="0.375" stop-color="#9FD98F"/>
<stop offset="0.57" stop-color="#D6D991"/>
<stop offset="0.74" stop-color="#FBD2AD"/>
<stop offset="0.875" stop-color="#E5AFAF"/>
<stop offset="1" stop-color="#D18FB2"/>
</linearGradient>
</defs>
</svg>
