<svg width="50" height="44" viewBox="0 0 50 44" fill="none" xmlns="http://www.w3.org/2000/svg">
<path d="M25.1167 19.3563L41.8646 33.3521L30.0021 42.25C27.0396 44.4729 22.9646 44.4729 20.0021 42.25L7.225 32.6667C6.14375 31.8563 4.82708 31.4167 3.475 31.4167H2.08542C0.933333 31.4167 0 30.4833 0 29.3333V6.28543C0 5.2271 0.789583 4.34585 1.84167 4.2271C4.66875 3.91252 7.21458 2.7771 9.81875 1.26043C13.5646 -0.66665 18.4792 0.0208491 21.5187 2.86877L22.8042 4.10418L14.4563 12.2521C12.2208 14.4854 11.8646 18.0167 13.6271 20.4563C14.7104 21.9625 16.6708 23.0792 18.7187 23.0792C20.3708 23.0792 21.9562 22.4292 23.1021 21.2813L25.1167 19.3542V19.3563ZM41.5708 1.26043C38.05 -0.499984 33.6583 -0.0416508 30.5125 2.4021L17.3813 15.2188C16.6083 15.9938 16.4333 17.2333 17.0042 18.025C17.3792 18.5458 17.9229 18.8583 18.5437 18.9104C19.1583 18.9625 19.7542 18.7396 20.1854 18.3063L27.7229 11.1625C29.7 9.28543 32.5646 12.2813 30.6042 14.1729L28.1437 16.4583L46.0458 31.4188H47.9146C49.0646 31.4188 49.9979 30.4854 49.9979 29.3354V6.2146C49.9979 5.19377 49.2521 4.35002 48.2458 4.16877C44.7167 3.53127 41.5687 1.26252 41.5687 1.26252L41.5708 1.26043Z" fill="#9995D9" fill-opacity="0.76"/>
</svg>
