<svg width="50" height="44" viewBox="0 0 50 44" fill="none" xmlns="http://www.w3.org/2000/svg">
<mask id="mask0_111_32" style="mask-type:alpha" maskUnits="userSpaceOnUse" x="0" y="0" width="50" height="44">
<path d="M25.1167 19.185L41.8646 33.1808L30.0021 42.0788C27.0396 44.3017 22.9646 44.3017 20.0021 42.0788L7.225 32.4954C6.14375 31.685 4.82708 31.2454 3.475 31.2454H2.08542C0.933333 31.2454 0 30.3121 0 29.1621V6.11417C0 5.05583 0.789583 4.17458 1.84167 4.05583C4.66875 3.74125 7.21458 2.60583 9.81875 1.08917C13.5646 -0.837915 18.4792 -0.150416 21.5187 2.6975L22.8042 3.93292L14.4563 12.0808C12.2208 14.3142 11.8646 17.8454 13.6271 20.285C14.7104 21.7913 16.6708 22.9079 18.7187 22.9079C20.3708 22.9079 21.9562 22.2579 23.1021 21.11L25.1167 19.1829V19.185ZM41.5708 1.08917C38.05 -0.671248 33.6583 -0.212915 30.5125 2.23083L17.3813 15.0475C16.6083 15.8225 16.4333 17.0621 17.0042 17.8538C17.3792 18.3746 17.9229 18.6871 18.5437 18.7392C19.1583 18.7913 19.7542 18.5683 20.1854 18.135L27.7229 10.9913C29.7 9.11417 32.5646 12.11 30.6042 14.0017L28.1437 16.2871L46.0458 31.2475H47.9146C49.0646 31.2475 49.9979 30.3142 49.9979 29.1642V6.04333C49.9979 5.0225 49.2521 4.17875 48.2458 3.9975C44.7167 3.36 41.5687 1.09125 41.5687 1.09125L41.5708 1.08917Z" fill="#9995D9" fill-opacity="0.76"/>
</mask>
<g mask="url(#mask0_111_32)">
<rect width="50" height="44" fill="url(#paint0_linear_111_32)"/>
</g>
<defs>
<linearGradient id="paint0_linear_111_32" x1="0" y1="0" x2="50" y2="4.23967e-09" gradientUnits="userSpaceOnUse">
<stop stop-color="#9B91D9"/>
<stop offset="0.18" stop-color="#91A3D9"/>
<stop offset="0.35" stop-color="#9DD298"/>
<stop offset="0.375" stop-color="#9FD98F"/>
<stop offset="0.57" stop-color="#D6D991"/>
<stop offset="0.74" stop-color="#FBD2AD"/>
<stop offset="0.875" stop-color="#E5AFAF"/>
<stop offset="1" stop-color="#D18FB2"/>
</linearGradient>
</defs>
</svg>
