<svg width="50" height="48" viewBox="0 0 50 48" fill="none" xmlns="http://www.w3.org/2000/svg">
<path d="M36.4583 0.9104C34.1124 0.94689 31.8176 1.60176 29.8057 2.80888C27.7939 4.016 26.1362 5.73263 25 7.7854C23.8638 5.73263 22.2061 4.016 20.1942 2.80888C18.1824 1.60176 15.8876 0.94689 13.5417 0.9104C9.80195 1.07288 6.27854 2.70885 3.7412 5.46088C1.20386 8.21292 -0.141163 11.8573 -1.56863e-05 15.5979C-1.56863e-05 29.7125 22.825 46.0146 23.7958 46.7062L25 47.5583L26.2042 46.7062C27.175 46.0187 50 29.7125 50 15.5979C50.1411 11.8573 48.7961 8.21292 46.2588 5.46088C43.7214 2.70885 40.198 1.07288 36.4583 0.9104Z" fill="#D99BB1"/>
</svg>
