<svg width="51" height="50" viewBox="0 0 51 50" fill="none" xmlns="http://www.w3.org/2000/svg">
<mask id="mask0_178_23" style="mask-type:alpha" maskUnits="userSpaceOnUse" x="0" y="0" width="51" height="47">
<path d="M36.4684 0C34.1225 0.0364894 31.8277 0.691361 29.8158 1.89848C27.804 3.1056 26.1463 4.82223 25.0101 6.875C23.8739 4.82223 22.2162 3.1056 20.2043 1.89848C18.1925 0.691361 15.8977 0.0364894 13.5518 0C9.81205 0.162481 6.28864 1.79845 3.7513 4.55048C1.21396 7.30252 -0.131061 10.9469 0.0100856 14.6875C0.0100856 28.8021 22.8351 45.1042 23.8059 45.7958L25.0101 46.6479L26.2143 45.7958C27.1851 45.1083 50.0101 28.8021 50.0101 14.6875C50.1512 10.9469 48.8062 7.30252 46.2689 4.55048C43.7315 1.79845 40.2081 0.162481 36.4684 0Z" fill="#D99BB1"/>
</mask>
<g mask="url(#mask0_178_23)">
<path d="M0 15C0 3.9543 8.95431 -5 20 -5H30C41.0457 -5 50 3.95431 50 15V27C50 38.0457 41.0457 47 30 47H20C8.9543 47 0 38.0457 0 27V15Z" fill="url(#paint0_linear_178_23)"/>
</g>
<defs>
<linearGradient id="paint0_linear_178_23" x1="0" y1="-5" x2="50" y2="-5" gradientUnits="userSpaceOnUse">
<stop stop-color="#9B91D9"/>
<stop offset="0.18" stop-color="#91A3D9"/>
<stop offset="0.35" stop-color="#9DD298"/>
<stop offset="0.375" stop-color="#9FD98F"/>
<stop offset="0.57" stop-color="#D6D991"/>
<stop offset="0.74" stop-color="#FBD2AD"/>
<stop offset="0.875" stop-color="#E5AFAF"/>
<stop offset="1" stop-color="#D18FB2"/>
</linearGradient>
</defs>
</svg>
