<svg width="70" height="70" viewBox="0 0 70 70" fill="none" xmlns="http://www.w3.org/2000/svg">
<g clip-path="url(#clip0_12_185)">
<path d="M43.75 0H26.25C22.3837 0.00463125 18.677 1.54257 15.9431 4.27647C13.2092 7.01038 11.6713 10.717 11.6667 14.5833V55.4167C11.6713 59.283 13.2092 62.9896 15.9431 65.7235C18.677 68.4574 22.3837 69.9954 26.25 70H43.75C47.6163 69.9954 51.323 68.4574 54.0569 65.7235C56.7908 62.9896 58.3287 59.283 58.3333 55.4167V14.5833C58.3287 10.717 56.7908 7.01038 54.0569 4.27647C51.323 1.54257 47.6163 0.00463125 43.75 0ZM26.25 5.83333H43.75C46.0706 5.83333 48.2962 6.75521 49.9372 8.39615C51.5781 10.0371 52.5 12.2627 52.5 14.5833V46.6667H17.5V14.5833C17.5 12.2627 18.4219 10.0371 20.0628 8.39615C21.7038 6.75521 23.9294 5.83333 26.25 5.83333ZM43.75 64.1667H26.25C23.9294 64.1667 21.7038 63.2448 20.0628 61.6039C18.4219 59.9629 17.5 57.7373 17.5 55.4167V52.5H52.5V55.4167C52.5 57.7373 51.5781 59.9629 49.9372 61.6039C48.2962 63.2448 46.0706 64.1667 43.75 64.1667Z" fill="black"/>
<path d="M35 61.2501C36.6108 61.2501 37.9167 59.9442 37.9167 58.3334C37.9167 56.7226 36.6108 55.4167 35 55.4167C33.3892 55.4167 32.0833 56.7226 32.0833 58.3334C32.0833 59.9442 33.3892 61.2501 35 61.2501Z" fill="black"/>
</g>
<defs>
<clipPath id="clip0_12_185">
<rect width="70" height="70" fill="white"/>
</clipPath>
</defs>
</svg>
