<svg width="70" height="70" viewBox="0 0 70 70" fill="none" xmlns="http://www.w3.org/2000/svg">
<mask id="mask0_111_81" style="mask-type:alpha" maskUnits="userSpaceOnUse" x="0" y="0" width="70" height="70">
<g clip-path="url(#clip0_111_81)">
<path d="M58.4996 49L58.7913 49.2917C59.4534 49.9594 60.2737 50.4489 61.1757 50.7146C62.0778 50.9803 63.0325 51.0135 63.9508 50.8112C64.8544 50.6216 65.6958 50.2078 66.3976 49.6079C67.0994 49.008 67.6391 48.2413 67.9671 47.3783C69.5774 43.15 70.3472 38.6481 70.2333 34.125C69.9051 25.2409 66.251 16.8043 59.9953 10.4875C53.7395 4.17078 45.3389 0.434902 36.4583 0.0204075C31.7625 -0.142873 27.0818 0.641045 22.6954 2.32543C18.309 4.00981 14.3066 6.56016 10.9269 9.82445C7.54722 13.0887 4.85941 17.0001 3.0237 21.3254C1.188 25.6507 0.241999 30.3013 0.242096 35C0.252903 44.2793 3.94386 53.1754 10.5053 59.7368C17.0667 66.2982 25.9628 69.9892 35.2421 70C36.2279 70 37.1963 69.9358 38.1588 69.8542C38.8891 69.7926 39.5695 69.4583 40.0645 68.9179C40.5596 68.3774 40.833 67.6704 40.8304 66.9375L40.7371 56.4725C40.7135 54.4045 41.3067 52.3764 42.4411 50.6471C43.5755 48.9179 45.1996 47.5659 47.1059 46.764C49.0122 45.962 51.1143 45.7464 53.1437 46.1447C55.1731 46.5429 57.0378 47.537 58.4996 49ZM49.9188 23.4792C50.7551 23.2573 51.6384 23.2883 52.457 23.5684C53.2757 23.8485 53.9929 24.365 54.518 25.0527C55.0431 25.7403 55.3525 26.5683 55.4071 27.4318C55.4617 28.2953 55.259 29.1556 54.8247 29.9039C54.3904 30.6523 53.7439 31.255 52.9671 31.6359C52.1902 32.0169 51.3179 32.159 50.4603 32.0441C49.6027 31.9293 48.7984 31.5628 48.1491 30.9909C47.4998 30.419 47.0347 29.6675 46.8125 28.8312C46.665 28.2759 46.6283 27.6968 46.7045 27.1273C46.7808 26.5577 46.9685 26.0087 47.2569 25.5117C47.5454 25.0147 47.9289 24.5794 48.3857 24.2307C48.8424 23.8819 49.3633 23.6265 49.9188 23.4792ZM22.9979 49.4375C22.1616 49.6594 21.2783 49.6283 20.4597 49.3483C19.641 49.0682 18.9238 48.5517 18.3987 47.864C17.8736 47.1763 17.5642 46.3484 17.5096 45.4849C17.455 44.6214 17.6577 43.7611 18.092 43.0127C18.5263 42.2644 19.1728 41.6617 19.9496 41.2807C20.7265 40.8997 21.5988 40.7577 22.4564 40.8725C23.314 40.9873 24.1183 41.3539 24.7676 41.9257C25.4169 42.4976 25.882 43.2492 26.1042 44.0854C26.2517 44.6408 26.2884 45.2198 26.2122 45.7894C26.1359 46.3589 25.9482 46.9079 25.6598 47.4049C25.3713 47.9019 24.9878 48.3372 24.531 48.686C24.0743 49.0348 23.5534 49.2901 22.9979 49.4375ZM22.9979 31.9375C22.1616 32.1594 21.2783 32.1283 20.4597 31.8483C19.641 31.5682 18.9238 31.0517 18.3987 30.364C17.8736 29.6763 17.5642 28.8484 17.5096 27.9849C17.455 27.1214 17.6577 26.2611 18.092 25.5127C18.5263 24.7644 19.1728 24.1617 19.9496 23.7807C20.7265 23.3997 21.5988 23.2577 22.4564 23.3725C23.314 23.4873 24.1183 23.8538 24.7676 24.4257C25.4169 24.9976 25.882 25.7492 26.1042 26.5854C26.2517 27.1408 26.2884 27.7198 26.2122 28.2894C26.1359 28.8589 25.9482 29.4079 25.6598 29.9049C25.3713 30.4019 24.9878 30.8372 24.531 31.186C24.0743 31.5347 23.5534 31.7901 22.9979 31.9375ZM37.5813 23.1875C36.745 23.4094 35.8617 23.3783 35.043 23.0983C34.2244 22.8182 33.5071 22.3017 32.982 21.614C32.4569 20.9263 32.1475 20.0984 32.0929 19.2349C32.0383 18.3714 32.241 17.5111 32.6753 16.7627C33.1096 16.0144 33.7561 15.4117 34.533 15.0307C35.3098 14.6497 36.1822 14.5077 37.0398 14.6225C37.8973 14.7373 38.7016 15.1038 39.3509 15.6757C40.0002 16.2476 40.4653 16.9992 40.6875 17.8354C40.8351 18.3908 40.8718 18.9698 40.7955 19.5394C40.7193 20.1089 40.5315 20.6579 40.2431 21.1549C39.9546 21.6519 39.5711 22.0872 39.1144 22.436C38.6576 22.7848 38.1367 23.0401 37.5813 23.1875Z" fill="black"/>
</g>
</mask>
<g mask="url(#mask0_111_81)">
<rect width="70" height="70" fill="url(#paint0_linear_111_81)"/>
</g>
<defs>
<linearGradient id="paint0_linear_111_81" x1="0" y1="0" x2="70" y2="5.22327e-09" gradientUnits="userSpaceOnUse">
<stop stop-color="#9B91D9"/>
<stop offset="0.18" stop-color="#91A3D9"/>
<stop offset="0.375" stop-color="#9FD98F"/>
<stop offset="0.58" stop-color="#D6D991"/>
<stop offset="0.78" stop-color="#FFD9AC"/>
<stop offset="1" stop-color="#D18FB2"/>
</linearGradient>
<clipPath id="clip0_111_81">
<rect width="70" height="70" fill="white"/>
</clipPath>
</defs>
</svg>
