<svg width="70" height="70" viewBox="0 0 70 70" fill="none" xmlns="http://www.w3.org/2000/svg">
<g clip-path="url(#clip0_12_198)">
<path d="M59.7917 49.5833C58.3275 49.5833 56.9363 49.8925 55.6763 50.4496L47.9092 40.5912C48.9679 38.9842 49.5833 37.0621 49.5833 34.9971C49.5833 32.9321 48.965 31.0071 47.9063 29.4L55.5946 19.5096C56.875 20.09 58.2983 20.4137 59.7917 20.4137C65.4208 20.4137 70 15.8346 70 10.2054C70 4.57624 65.4208 -0.00292969 59.7917 -0.00292969C55.7288 -0.00292969 52.2113 2.38582 50.5692 5.8304H19.4308C17.7888 2.38582 14.2713 -0.00292969 10.2083 -0.00292969C4.57917 -1.30208e-05 0 4.57915 0 10.2083C0 14.2712 2.38875 17.7887 5.83333 19.4308V50.5721C2.38875 52.2141 0 55.7316 0 59.7946C0 65.4237 4.57917 70.0029 10.2083 70.0029C14.2713 70.0029 17.7888 67.6141 19.4308 64.1696H50.5721C52.2142 67.6141 55.7317 70.0029 59.7946 70.0029C65.4238 70.0029 70.0029 65.4237 70.0029 59.7946C70.0029 54.1654 65.4238 49.5862 59.7946 49.5862L59.7917 49.5833ZM11.6667 49.6883V20.3117C16.1292 19.67 19.67 16.1292 20.3117 11.6667H49.6883C49.8983 13.1279 50.4204 14.4929 51.1817 15.6858L43.4438 25.6375C42.1954 25.0921 40.8188 24.7887 39.3721 24.7887C33.7429 24.7887 29.1638 29.3679 29.1638 34.9971C29.1638 40.6262 33.7429 45.2054 39.3721 45.2054C40.8188 45.2054 42.1983 44.9021 43.4467 44.3567L51.2283 54.2325C50.4379 55.4458 49.8983 56.8371 49.6825 58.3304H20.3117C19.67 53.8679 16.1292 50.33 11.6667 49.6883ZM43.75 35C43.75 37.4121 41.7871 39.375 39.375 39.375C36.9629 39.375 35 37.4121 35 35C35 32.5879 36.9629 30.625 39.375 30.625C41.7871 30.625 43.75 32.5879 43.75 35ZM59.7917 5.83332C62.2038 5.83332 64.1667 7.79624 64.1667 10.2083C64.1667 12.6204 62.2038 14.5833 59.7917 14.5833C57.3796 14.5833 55.4167 12.6204 55.4167 10.2083C55.4167 7.79624 57.3796 5.83332 59.7917 5.83332ZM10.2083 5.83332C12.6204 5.83332 14.5833 7.79624 14.5833 10.2083C14.5833 12.6204 12.6204 14.5833 10.2083 14.5833C7.79625 14.5833 5.83333 12.6204 5.83333 10.2083C5.83333 7.79624 7.79625 5.83332 10.2083 5.83332ZM10.2083 64.1666C7.79625 64.1666 5.83333 62.2037 5.83333 59.7916C5.83333 57.3796 7.79625 55.4166 10.2083 55.4166C12.6204 55.4166 14.5833 57.3796 14.5833 59.7916C14.5833 62.2037 12.6204 64.1666 10.2083 64.1666ZM59.7917 64.1666C57.3796 64.1666 55.4167 62.2037 55.4167 59.7916C55.4167 57.3796 57.3796 55.4166 59.7917 55.4166C62.2038 55.4166 64.1667 57.3796 64.1667 59.7916C64.1667 62.2037 62.2038 64.1666 59.7917 64.1666Z" fill="black"/>
</g>
<defs>
<clipPath id="clip0_12_198">
<rect width="70" height="70" fill="white"/>
</clipPath>
</defs>
</svg>
