<svg width="70" height="70" viewBox="0 0 70 70" fill="none" xmlns="http://www.w3.org/2000/svg">
<g clip-path="url(#clip0_12_188)">
<path d="M66.2462 11.8913C65.4258 10.9067 64.3987 10.1149 63.2378 9.57196C62.0769 9.02907 60.8107 8.74844 59.5292 8.75H12.3725L12.25 7.72625C11.9993 5.5983 10.9765 3.6363 9.3756 2.21223C7.77465 0.788151 5.70683 0.000996898 3.56417 0L2.91667 0C2.14312 0 1.40125 0.307291 0.854272 0.854272C0.307291 1.40125 0 2.14312 0 2.91667C0 3.69022 0.307291 4.43208 0.854272 4.97906C1.40125 5.52604 2.14312 5.83333 2.91667 5.83333H3.56417C4.27856 5.83343 4.96807 6.09571 5.50192 6.57042C6.03577 7.04513 6.37683 7.69927 6.46042 8.40875L10.4738 42.5338C10.8904 46.0827 12.5956 49.3552 15.2656 51.73C17.9356 54.1049 21.3846 55.4167 24.9579 55.4167H55.4167C56.1902 55.4167 56.9321 55.1094 57.4791 54.5624C58.026 54.0154 58.3333 53.2736 58.3333 52.5C58.3333 51.7265 58.026 50.9846 57.4791 50.4376C56.9321 49.8906 56.1902 49.5833 55.4167 49.5833H24.9579C23.1527 49.5783 21.3932 49.0149 19.9206 47.9706C18.4481 46.9263 17.3347 45.452 16.7329 43.75H51.4996C54.9188 43.7502 58.2293 42.549 60.8528 40.3563C63.4763 38.1635 65.2459 35.1187 65.8525 31.7538L68.1421 19.0546C68.3706 17.7946 68.3193 16.4998 67.9916 15.2619C67.664 14.0239 67.0681 12.8732 66.2462 11.8913ZM62.4167 18.0192L60.1242 30.7183C59.76 32.7396 58.6964 34.5683 57.1196 35.8843C55.5428 37.2003 53.5534 37.9198 51.4996 37.9167H15.8054L13.0608 14.5833H59.5292C59.9576 14.5808 60.3814 14.6726 60.7703 14.8524C61.1592 15.0322 61.5038 15.2954 61.7794 15.6234C62.0551 15.9515 62.2551 16.3362 62.3653 16.7502C62.4754 17.1643 62.4929 17.5975 62.4167 18.0192Z" fill="black"/>
<path d="M20.4167 69.9999C23.6383 69.9999 26.25 67.3882 26.25 64.1666C26.25 60.9449 23.6383 58.3333 20.4167 58.3333C17.195 58.3333 14.5833 60.9449 14.5833 64.1666C14.5833 67.3882 17.195 69.9999 20.4167 69.9999Z" fill="black"/>
<path d="M49.5833 69.9999C52.805 69.9999 55.4167 67.3882 55.4167 64.1666C55.4167 60.9449 52.805 58.3333 49.5833 58.3333C46.3617 58.3333 43.75 60.9449 43.75 64.1666C43.75 67.3882 46.3617 69.9999 49.5833 69.9999Z" fill="black"/>
</g>
<defs>
<clipPath id="clip0_12_188">
<rect width="70" height="70" fill="white"/>
</clipPath>
</defs>
</svg>
