<svg width="50" height="50" viewBox="0 0 50 50" fill="none" xmlns="http://www.w3.org/2000/svg">
<mask id="mask0_178_9" style="mask-type:alpha" maskUnits="userSpaceOnUse" x="0" y="0" width="50" height="49">
<path d="M2.74667 25.4375L10.1633 30.8542L7.34667 39.5771C6.89149 40.93 6.88572 42.3938 7.33024 43.7502C7.77475 45.1066 8.64573 46.2831 9.81334 47.1042C10.9609 47.9517 12.3517 48.4056 13.7782 48.3985C15.2048 48.3914 16.5909 47.9235 17.73 47.0646L24.9821 41.7271L32.2363 47.0584C33.3818 47.901 34.765 48.3586 36.187 48.3656C37.6091 48.3725 38.9967 47.9283 40.1504 47.0969C41.304 46.2655 42.1644 45.0897 42.6077 43.7385C43.051 42.3873 43.0544 40.9304 42.6175 39.5771L39.8008 30.8542L47.2175 25.4375C48.3615 24.6011 49.212 23.4245 49.6474 22.0758C50.0828 20.7272 50.0808 19.2754 49.6418 17.9279C49.2028 16.5804 48.3492 15.4061 47.203 14.5727C46.0567 13.7394 44.6764 13.2895 43.2592 13.2875H34.1488L31.3842 4.67086C30.9494 3.31452 30.0951 2.13131 28.9445 1.29183C27.7939 0.452353 26.4064 0 24.9821 0C23.5578 0 22.1703 0.452353 21.0197 1.29183C19.869 2.13131 19.0148 3.31452 18.58 4.67086L15.8154 13.2875H6.71334C5.29614 13.2895 3.91582 13.7394 2.76955 14.5727C1.62327 15.4061 0.769676 16.5804 0.330678 17.9279C-0.108321 19.2754 -0.110264 20.7272 0.325126 22.0758C0.760516 23.4245 1.61097 24.6011 2.75501 25.4375H2.74667Z" fill="#FBD2AD"/>
</mask>
<g mask="url(#mask0_178_9)">
<path d="M0 20C0 8.9543 8.95431 0 20 0H30C41.0457 0 50 8.95431 50 20V31C50 42.0457 41.0457 51 30 51H20C8.9543 51 0 42.0457 0 31V20Z" fill="url(#paint0_linear_178_9)"/>
</g>
<defs>
<linearGradient id="paint0_linear_178_9" x1="0" y1="0" x2="50" y2="3.65775e-09" gradientUnits="userSpaceOnUse">
<stop stop-color="#9B91D9"/>
<stop offset="0.18" stop-color="#91A3D9"/>
<stop offset="0.35" stop-color="#9DD298"/>
<stop offset="0.375" stop-color="#9FD98F"/>
<stop offset="0.57" stop-color="#D6D991"/>
<stop offset="0.74" stop-color="#FBD2AD"/>
<stop offset="0.875" stop-color="#E5AFAF"/>
<stop offset="1" stop-color="#D18FB2"/>
</linearGradient>
</defs>
</svg>
