<svg width="50" height="49" viewBox="0 0 50 49" fill="none" xmlns="http://www.w3.org/2000/svg">
<path d="M2.76458 25.8333L10.1812 31.2499L7.36458 39.9729C6.9094 41.3258 6.90363 42.7895 7.34814 44.146C7.79265 45.5024 8.66364 46.6789 9.83125 47.4999C10.9789 48.3474 12.3696 48.8014 13.7962 48.7943C15.2227 48.7871 16.6088 48.3193 17.7479 47.4604L25 42.1229L32.2542 47.4541C33.3997 48.2967 34.7829 48.7544 36.2049 48.7613C37.627 48.7682 39.0146 48.3241 40.1683 47.4927C41.3219 46.6613 42.1823 45.4855 42.6256 44.1343C43.0689 42.7831 43.0723 41.3261 42.6354 39.9729L39.8187 31.2499L47.2354 25.8333C48.3795 24.9968 49.2299 23.8203 49.6653 22.4716C50.1007 21.1229 50.0987 19.6712 49.6597 18.3237C49.2207 16.9762 48.3671 15.8019 47.2209 14.9685C46.0746 14.1351 44.6943 13.6853 43.2771 13.6833H34.1667L31.4021 5.06661C30.9673 3.71028 30.1131 2.52706 28.9624 1.68758C27.8118 0.848105 26.4243 0.395752 25 0.395752C23.5757 0.395752 22.1882 0.848105 21.0376 1.68758C19.8869 2.52706 19.0327 3.71028 18.5979 5.06661L15.8333 13.6833H6.73125C5.31405 13.6853 3.93373 14.1351 2.78746 14.9685C1.64118 15.8019 0.787582 16.9762 0.348584 18.3237C-0.0904149 19.6712 -0.0923579 21.1229 0.343032 22.4716C0.778422 23.8203 1.62887 24.9968 2.77291 25.8333H2.76458Z" fill="#FBD2AD"/>
</svg>
