<svg width="50" height="50" viewBox="0 0 50 50" fill="none" xmlns="http://www.w3.org/2000/svg">
<mask id="mask0_111_42" style="mask-type:alpha" maskUnits="userSpaceOnUse" x="0" y="0" width="50" height="50">
<path d="M25 14.5833C19.2562 14.5833 14.5833 19.2562 14.5833 25C14.5833 30.7437 19.2562 35.4167 25 35.4167C30.7437 35.4167 35.4167 30.7437 35.4167 25C35.4167 19.2562 30.7437 14.5833 25 14.5833ZM25 29.1667C22.7021 29.1667 20.8333 27.2979 20.8333 25C20.8333 22.7021 22.7021 20.8333 25 20.8333C27.2979 20.8333 29.1667 22.7021 29.1667 25C29.1667 27.2979 27.2979 29.1667 25 29.1667ZM46.875 21.875H45.6C44.2417 12.8854 37.1167 5.75833 28.125 4.4V3.125C28.125 1.4 26.7271 0 25 0C23.2729 0 21.875 1.4 21.875 3.125V4.4C12.8833 5.75833 5.75833 12.8854 4.4 21.875H3.125C1.39792 21.875 0 23.275 0 25C0 26.725 1.39792 28.125 3.125 28.125H4.4C5.75833 37.1146 12.8833 44.2417 21.875 45.6V46.875C21.875 48.6 23.2729 50 25 50C26.7271 50 28.125 48.6 28.125 46.875V45.6C37.1167 44.2417 44.2417 37.1167 45.6 28.125H46.875C48.6021 28.125 50 26.725 50 25C50 23.275 48.6021 21.875 46.875 21.875ZM25 39.5833C16.9583 39.5833 10.4167 33.0396 10.4167 25C10.4167 16.9604 16.9583 10.4167 25 10.4167C33.0417 10.4167 39.5833 16.9604 39.5833 25C39.5833 33.0396 33.0417 39.5833 25 39.5833Z" fill="#9ED693"/>
</mask>
<g mask="url(#mask0_111_42)">
<path d="M0 20C0 8.9543 8.95431 0 20 0H30C41.0457 0 50 8.95431 50 20V30C50 41.0457 41.0457 50 30 50H20C8.9543 50 0 41.0457 0 30V20Z" fill="url(#paint0_linear_111_42)"/>
</g>
<defs>
<linearGradient id="paint0_linear_111_42" x1="0" y1="0" x2="50" y2="3.73091e-09" gradientUnits="userSpaceOnUse">
<stop stop-color="#9B91D9"/>
<stop offset="0.18" stop-color="#91A3D9"/>
<stop offset="0.35" stop-color="#9DD298"/>
<stop offset="0.375" stop-color="#9FD98F"/>
<stop offset="0.57" stop-color="#D6D991"/>
<stop offset="0.74" stop-color="#FBD2AD"/>
<stop offset="0.875" stop-color="#E5AFAF"/>
<stop offset="1" stop-color="#D18FB2"/>
</linearGradient>
</defs>
</svg>
