<svg width="70" height="70" viewBox="0 0 70 70" fill="none" xmlns="http://www.w3.org/2000/svg">
<g clip-path="url(#clip0_12_183)">
<path d="M68.2908 46.9292C68.2908 46.9292 42.8167 35.35 42.7263 35.3208C40.6029 34.5975 38.2988 35.1312 36.7121 36.7179C35.1254 38.3046 34.5917 40.6087 35.4229 42.9917L46.9263 68.2938C47.39 69.3175 48.4021 69.9825 49.5279 70.0029H49.5833C50.6858 70.0029 51.6979 69.3788 52.1938 68.39L57.5925 57.5925L68.39 52.1938C69.3963 51.6892 70.0233 50.6567 70.0029 49.5308C69.9825 48.4079 69.3175 47.3958 68.2938 46.9292H68.2908ZM54.1129 52.8092C53.55 53.0921 53.0892 53.55 52.8092 54.1129L49.7058 60.3196L40.8275 40.8479L60.3138 49.7087L54.1158 52.8063L54.1129 52.8092ZM37.66 64.05C37.1583 64.0938 36.6538 64.1258 36.1433 64.1463C34.195 62.2183 29.1142 56.8021 25.5733 49.5863H27.7083C29.3183 49.5863 30.625 48.2825 30.625 46.6696C30.625 45.0567 29.3183 43.7529 27.7083 43.7529H23.2458C22.3971 40.9763 21.875 38.0363 21.875 35.0029C21.875 31.9696 22.4 29.0325 23.2517 26.2529H46.7513C47.0954 27.3817 47.3871 28.5367 47.6117 29.715C47.915 31.2987 49.4463 32.3429 51.0213 32.0337C52.6021 31.7333 53.6404 30.205 53.34 28.6242C53.1883 27.8221 53.0075 27.0317 52.8063 26.2529H62.7025C62.7404 26.2529 62.7813 26.2529 62.8192 26.2529C63.6913 29.0179 64.1608 31.9579 64.1608 35.0058C64.1608 35.9012 64.12 36.785 64.0413 37.66C63.8983 39.2642 65.0796 40.6817 66.6838 40.8275C68.2938 40.985 69.7083 39.7892 69.8512 38.185C69.9446 37.1379 69.9942 36.0763 69.9942 35.0058C70 15.7004 54.2996 0 35 0C15.7004 0 0 15.7004 0 35C0 54.2996 15.7004 70 34.9971 70C36.0675 70 37.1263 69.9504 38.1704 69.8571C39.7746 69.7142 40.9617 68.2996 40.8188 66.6925C40.6758 65.0912 39.2642 63.9071 37.6571 64.0471L37.66 64.05ZM17.185 43.7529H7.29167C7.25375 43.7529 7.21583 43.7529 7.175 43.7529C6.30292 40.9879 5.83333 38.0479 5.83333 35C5.83333 31.9521 6.30292 29.0121 7.175 26.2471C7.21292 26.2471 7.25083 26.2471 7.29167 26.2471H17.185C16.4704 29.0325 16.0417 31.9608 16.0417 34.9971C16.0417 38.0333 16.4675 40.9617 17.185 43.7471V43.7529ZM25.5879 20.4196C28.5658 14.3617 32.6317 9.55792 35.0058 7.03792C37.3829 9.555 41.4488 14.35 44.4267 20.4196H25.5879ZM60.2525 20.4196H50.8375C48.5304 14.9187 45.3308 10.2463 42.5775 6.83667C50.0996 8.86375 56.4288 13.8279 60.2525 20.4196ZM27.4167 6.83667C24.6633 10.2463 21.4608 14.9188 19.1567 20.4167H9.7475C13.5683 13.825 19.8946 8.86083 27.4167 6.83667ZM9.7475 49.5833H19.1567C21.4608 55.0842 24.6633 59.7538 27.4167 63.1633C19.8975 61.1363 13.5712 56.1721 9.7475 49.5833Z" fill="black"/>
</g>
<defs>
<clipPath id="clip0_12_183">
<rect width="70" height="70" fill="white"/>
</clipPath>
</defs>
</svg>
