<svg width="48" height="48" viewBox="-5 0 48 48" fill="none" xmlns="http://www.w3.org/2000/svg">
  <mask id="a" style="mask-type:alpha" maskUnits="userSpaceOnUse" x="0" y="0" width="60" height="48">
    <path d="M24.682 0h9.727v32.455c0 3-.674 5.606-2.023 7.818-1.333 2.212-3.189 3.916-5.568 5.113-2.379 1.197-5.144 1.796-8.295 1.796-2.803 0-5.349-.493-7.637-1.477-2.272-1-4.075-2.516-5.409-4.546-1.333-2.045-1.992-4.614-1.977-7.704h9.796c.03 1.227.28 2.28.75 3.159a5.122 5.122 0 0 0 1.977 2c.848.454 1.848.681 3 .681 1.212 0 2.235-.257 3.068-.772.848-.53 1.492-1.303 1.932-2.318.44-1.016.659-2.266.659-3.75V0Z" fill="#fff"/>
    <path d="M3.5 27.046v5h9.794v-5H17l-7.941-8.5L0 27.046h3.5Z" fill="#fff"/>
  </mask>
  <g mask="url(#a)">
    <path d="M11.387 6.686C16.904-1.754 28.22-4.126 36.66 1.391c8.441 5.517 10.812 16.832 5.295 25.273l-11.117 17.01c-5.516 8.441-16.831 10.812-25.272 5.295C-2.875 43.453-5.246 32.138.27 23.697l11.117-17.01Z" fill="url(#b)"/>
  </g>
  <defs>
    <linearGradient id="b" x1="21.376" y1="-8.598" x2="51.944" y2="11.38" gradientUnits="userSpaceOnUse">
      <stop stop-color="#9B91D9"/>
      <stop offset=".18" stop-color="#91A3D9"/>
      <stop offset=".375" stop-color="#9FD98F"/>
      <stop offset=".58" stop-color="#D6D991"/>
      <stop offset=".78" stop-color="#FFD9AC"/>
      <stop offset="1" stop-color="#D18FB2"/>
    </linearGradient>
  </defs>
</svg>
