<svg width="35" height="48" viewBox="0 0 35 48" fill="none" xmlns="http://www.w3.org/2000/svg">
    <path d="M24.5682 0H34.2955V32.4546C34.2955 35.4546 33.6212 38.0607 32.2728 40.2728C30.9394 42.4849 29.0834 44.1894 26.7046 45.3864C24.3258 46.5834 21.5606 47.1819 18.4091 47.1819C15.6061 47.1819 13.0606 46.6894 10.7728 45.7046C8.50005 44.7046 6.69702 43.1894 5.36368 41.1591C4.03035 39.1137 3.48485 36.9546 3.5 33.8637H13.3403C13.3706 35.091 13.4622 35.7349 13.9319 36.6137C14.4167 37.4773 15.0758 38.144 15.9091 38.6137C16.7576 39.0682 17.7576 39.2955 18.9091 39.2955C20.1212 39.2955 21.144 39.0379 21.9773 38.5228C22.8258 37.9925 23.4697 37.2197 23.9091 36.2046C24.3485 35.1894 24.5682 33.9394 24.5682 32.4546V0Z" fill="white"/>
    <path d="M3.5 28.3637V32.8637H13.2941V28.3637H17L9.05882 19.8637L0 28.3637H3.5Z" fill="white"/>
</svg>