<svg width="231" height="51" viewBox="0 0 231 51" fill="none" xmlns="http://www.w3.org/2000/svg">
<path d="M24.6818 3.4545H34.4091V35.9091C34.4091 38.9091 33.7348 41.5152 32.3864 43.7273C31.053 45.9394 29.197 47.6439 26.8182 48.8409C24.4394 50.0379 21.6742 50.6364 18.5227 50.6364C15.7197 50.6364 13.1742 50.1439 10.8864 49.1591C8.61365 48.1591 6.81062 46.6439 5.47728 44.6136C4.14395 42.5682 3.48486 40 3.50001 36.9091H13.2955C13.3258 38.1364 13.5758 39.1894 14.0455 40.0682C14.5303 40.9318 15.1894 41.5985 16.0227 42.0682C16.8712 42.5227 17.8712 42.75 19.0227 42.75C20.2348 42.75 21.2576 42.4924 22.0909 41.9773C22.9394 41.447 23.5833 40.6742 24.0227 39.6591C24.4621 38.6439 24.6818 37.3939 24.6818 35.9091V3.4545ZM64.75 35.1364V15.0909H74.4318V50H65.1364V43.6591H64.7727C63.9848 45.7045 62.6742 47.3485 60.8409 48.5909C59.0227 49.8333 56.803 50.4545 54.1818 50.4545C51.8485 50.4545 49.7955 49.9242 48.0227 48.8636C46.25 47.803 44.8636 46.2955 43.8636 44.3409C42.8788 42.3864 42.3788 40.0455 42.3636 37.3182V15.0909H52.0455V35.5909C52.0606 37.6515 52.6136 39.2803 53.7045 40.4773C54.7955 41.6742 56.2576 42.2727 58.0909 42.2727C59.2576 42.2727 60.3485 42.0076 61.3636 41.4773C62.3788 40.9318 63.197 40.1288 63.8182 39.0682C64.4545 38.0076 64.7652 36.697 64.75 35.1364ZM82.1761 50V15.0909H91.4034V21.25H91.8125C92.5398 19.2045 93.7519 17.5909 95.4489 16.4091C97.1458 15.2273 99.1761 14.6364 101.54 14.6364C103.934 14.6364 105.972 15.2348 107.653 16.4318C109.335 17.6136 110.456 19.2197 111.017 21.25H111.381C112.093 19.25 113.381 17.6515 115.244 16.4545C117.123 15.2424 119.343 14.6364 121.903 14.6364C125.161 14.6364 127.805 15.6742 129.835 17.75C131.881 19.8106 132.903 22.7348 132.903 26.5227V50H123.244V28.4318C123.244 26.4924 122.729 25.0379 121.699 24.0682C120.669 23.0985 119.381 22.6136 117.835 22.6136C116.078 22.6136 114.706 23.1742 113.722 24.2955C112.737 25.4015 112.244 26.8636 112.244 28.6818V50H102.858V28.2273C102.858 26.5152 102.366 25.1515 101.381 24.1364C100.411 23.1212 99.1307 22.6136 97.5398 22.6136C96.464 22.6136 95.4943 22.8864 94.6307 23.4318C93.7822 23.9621 93.108 24.7121 92.608 25.6818C92.108 26.6364 91.858 27.7576 91.858 29.0455V50H82.1761ZM140.733 50V3.4545H150.415V20.9545H150.71C151.134 20.0152 151.748 19.0606 152.551 18.0909C153.369 17.1061 154.43 16.2879 155.733 15.6364C157.051 14.9697 158.688 14.6364 160.642 14.6364C163.188 14.6364 165.536 15.303 167.688 16.6364C169.839 17.9545 171.559 19.947 172.847 22.6136C174.134 25.2652 174.778 28.5909 174.778 32.5909C174.778 36.4848 174.15 39.7727 172.892 42.4545C171.65 45.1212 169.953 47.1439 167.801 48.5227C165.665 49.8864 163.271 50.5682 160.619 50.5682C158.741 50.5682 157.142 50.2576 155.824 49.6364C154.521 49.0152 153.453 48.2348 152.619 47.2955C151.786 46.3409 151.15 45.3788 150.71 44.4091H150.278V50H140.733ZM150.21 32.5455C150.21 34.6212 150.498 36.4318 151.074 37.9773C151.65 39.5227 152.483 40.7273 153.574 41.5909C154.665 42.4394 155.991 42.8636 157.551 42.8636C159.127 42.8636 160.46 42.4318 161.551 41.5682C162.642 40.6894 163.468 39.4773 164.028 37.9318C164.604 36.3712 164.892 34.5758 164.892 32.5455C164.892 30.5303 164.612 28.7576 164.051 27.2273C163.491 25.697 162.665 24.5 161.574 23.6364C160.483 22.7727 159.142 22.3409 157.551 22.3409C155.975 22.3409 154.642 22.7576 153.551 23.5909C152.475 24.4242 151.65 25.6061 151.074 27.1364C150.498 28.6667 150.21 30.4697 150.21 32.5455ZM181.239 50V15.0909H190.92V50H181.239ZM186.102 10.5909C184.663 10.5909 183.428 10.1136 182.398 9.1591C181.383 8.1894 180.875 7.0303 180.875 5.6818C180.875 4.3485 181.383 3.2045 182.398 2.25C183.428 1.2803 184.663 0.795502 186.102 0.795502C187.542 0.795502 188.769 1.2803 189.784 2.25C190.814 3.2045 191.33 4.3485 191.33 5.6818C191.33 7.0303 190.814 8.1894 189.784 9.1591C188.769 10.1136 187.542 10.5909 186.102 10.5909ZM214.585 50.6818C210.994 50.6818 207.903 49.9545 205.312 48.5C202.737 47.0303 200.752 44.9545 199.358 42.2727C197.964 39.5758 197.267 36.3864 197.267 32.7045C197.267 29.1136 197.964 25.9621 199.358 23.25C200.752 20.5379 202.714 18.4242 205.244 16.9091C207.79 15.3939 210.775 14.6364 214.199 14.6364C216.502 14.6364 218.646 15.0076 220.631 15.75C222.631 16.4773 224.373 17.5758 225.858 19.0455C227.358 20.5152 228.525 22.3636 229.358 24.5909C230.191 26.803 230.608 29.3939 230.608 32.3636V35.0227H201.131V29.0227H221.494C221.494 27.6288 221.191 26.3939 220.585 25.3182C219.979 24.2424 219.138 23.4015 218.062 22.7955C217.002 22.1742 215.767 21.8636 214.358 21.8636C212.888 21.8636 211.585 22.2045 210.449 22.8864C209.328 23.553 208.449 24.4545 207.812 25.5909C207.176 26.7121 206.85 27.9621 206.835 29.3409V35.0455C206.835 36.7727 207.153 38.2652 207.79 39.5227C208.441 40.7803 209.358 41.75 210.54 42.4318C211.722 43.1136 213.123 43.4545 214.744 43.4545C215.82 43.4545 216.805 43.303 217.699 43C218.593 42.697 219.358 42.2424 219.994 41.6364C220.631 41.0303 221.116 40.2879 221.449 39.4091L230.403 40C229.949 42.1515 229.017 44.0303 227.608 45.6364C226.214 47.2273 224.411 48.4697 222.199 49.3636C220.002 50.2424 217.464 50.6818 214.585 50.6818Z" fill="white"/>
<path d="M3.5 31.5V36H13.2941V31.5H17L9.05882 23L0 31.5H3.5Z" fill="white"/>
</svg>
